<?xml version="1.0" standalone="no"?>
<!DOCTYPE svg PUBLIC "-//W3C//DTD SVG 20010904//EN"
 "http://www.w3.org/TR/2001/REC-SVG-20010904/DTD/svg10.dtd">
<svg version="1.0" xmlns="http://www.w3.org/2000/svg"
 width="30.000000pt" height="30.000000pt" viewBox="0 0 650.000000 650.000000"
 preserveAspectRatio="xMidYMid meet">

<g transform="translate(0.000000,650.000000) scale(0.100000,-0.100000)"
fill="#ffffff" stroke="none">
<path d="M1809 6135 c-139 -28 -276 -100 -353 -185 -89 -99 -175 -260 -222
-416 -23 -76 -27 -108 -28 -219 -1 -159 13 -216 90 -371 63 -129 126 -204 262
-312 148 -118 289 -194 384 -208 l43 -6 -63 37 c-35 20 -66 43 -69 51 -3 8 -9
14 -14 14 -9 0 -21 8 -53 37 -8 7 -16 10 -18 8 -3 -3 -15 7 -29 23 l-24 27 28
-24 c15 -14 27 -20 27 -13 0 14 -49 52 -67 52 -9 0 -13 6 -10 15 4 8 2 17 -2
20 -5 3 -12 -3 -15 -12 -6 -14 -9 -13 -31 7 -14 13 -21 28 -18 38 5 11 2 14
-9 9 -10 -3 -25 4 -39 19 -12 13 -18 24 -13 24 5 0 -2 6 -16 13 -14 7 -24 21
-23 31 1 12 -4 16 -15 12 -10 -4 -7 1 6 12 16 13 21 23 16 37 -5 13 -4 16 5
11 7 -5 10 -20 7 -37 -2 -16 0 -29 6 -29 6 0 4 -7 -3 -17 -12 -14 -12 -16 1
-11 9 3 14 15 13 29 l-3 24 15 -25 c8 -14 14 -21 15 -15 0 5 5 4 12 -3 9 -9 7
-17 -8 -34 -11 -14 -13 -18 -3 -10 21 15 32 4 16 -17 -10 -14 -10 -14 5 -3 14
12 19 10 33 -12 9 -14 14 -30 11 -35 -4 -5 -2 -12 3 -15 5 -3 11 8 13 24 3 17
1 30 -4 30 -5 0 -6 4 -3 10 3 5 0 7 -8 4 -8 -3 -20 2 -27 11 -9 11 -10 15 0
15 6 0 -4 16 -24 36 -20 20 -43 51 -52 70 -9 19 -25 39 -36 45 -10 5 -16 14
-13 20 4 5 1 9 -4 9 -6 0 -10 3 -9 8 1 4 -7 24 -17 44 -15 31 -21 35 -36 27
-15 -7 -17 -6 -13 6 4 8 10 15 15 15 5 0 9 5 9 10 0 19 -20 10 -35 -17 -15
-27 -16 -27 -9 -3 3 14 14 34 23 44 11 13 12 17 2 11 -11 -6 -13 -3 -9 13 4
15 2 19 -8 15 -16 -6 -20 22 -4 32 6 4 5 18 -4 40 -8 19 -12 43 -9 53 2 11 0
23 -6 26 -7 5 -11 -9 -12 -41 -2 -46 -2 -45 -9 17 -4 36 -6 67 -4 69 2 2 4 -3
4 -12 0 -9 7 -17 15 -17 10 0 15 10 15 28 0 20 -3 23 -10 12 -7 -12 -11 -10
-18 10 -9 24 -10 23 -17 -15 -7 -33 -9 -36 -16 -20 -10 27 -11 37 -1 31 9 -5
36 84 28 92 -3 2 2 11 10 19 8 9 18 12 22 8 4 -4 1 -10 -5 -12 -8 -3 -13 -22
-13 -46 0 -22 2 -38 4 -36 10 9 19 66 17 104 -1 22 1 51 5 65 6 24 7 24 14 5
l9 -20 1 20 c2 11 2 24 1 28 -1 4 5 15 14 23 8 9 15 21 15 27 0 7 -5 6 -11 -3
-9 -12 -10 -12 -5 3 3 10 6 24 6 30 0 8 4 7 9 -2 14 -21 25 24 12 48 -7 13 -8
22 -1 26 5 3 10 -1 10 -9 0 -9 4 -16 10 -16 5 0 6 7 3 17 -4 11 -3 14 5 9 7
-4 14 3 18 19 3 14 10 25 14 25 4 0 16 12 25 27 15 23 15 25 2 20 -9 -3 -19
-1 -23 5 -4 6 -3 8 4 4 6 -3 13 3 17 14 4 11 11 18 16 15 5 -4 9 -1 9 5 0 6 4
9 9 5 6 -3 14 3 20 13 8 15 6 18 -15 18 -18 0 -23 -4 -19 -15 5 -13 4 -14 -6
-3 -18 17 -34 15 -20 -2 14 -17 -8 -29 -30 -15 -11 7 -10 9 4 9 10 0 16 4 12
9 -7 13 45 60 60 55 7 -3 15 2 19 11 4 13 10 14 26 5 22 -12 65 4 55 21 -4 5
-8 9 -11 9 -3 0 -2 -6 2 -12 6 -10 4 -10 -8 0 -13 10 -17 10 -21 0 -2 -7 -8
-9 -13 -5 -10 9 16 28 28 21 4 -3 8 1 8 8 0 9 3 9 10 -2 9 -13 14 -8 12 11 -1
4 9 5 21 2 18 -4 19 -3 7 6 -9 7 -11 11 -3 11 7 0 16 -7 21 -16 8 -15 10 -15
15 0 4 10 3 15 -3 11 -6 -3 -10 -2 -10 3 0 13 34 21 51 12 8 -5 27 -2 44 6 21
10 23 12 6 8 -17 -4 -21 -3 -16 6 4 6 18 10 31 7 14 -2 26 -1 29 3 2 4 32 8
65 9 44 1 84 -6 152 -29 127 -43 203 -85 269 -151 79 -79 91 -119 92 -312 3
-211 -12 -245 -154 -370 -72 -63 -156 -104 -254 -121 l-80 -14 155 -1 c117 0
161 3 180 14 30 17 44 19 34 4 -4 -7 -1 -10 7 -7 8 3 13 10 12 16 -3 15 25 23
33 10 5 -7 2 -8 -6 -3 -8 5 -11 4 -6 -3 4 -8 15 -8 36 0 27 9 33 28 9 28 -6 0
-7 -4 -4 -10 3 -5 1 -10 -4 -10 -20 0 -11 16 22 40 27 20 29 20 14 3 -14 -16
-15 -22 -4 -26 16 -6 78 19 76 30 -4 15 13 43 23 37 5 -3 4 -13 -4 -22 -9 -12
-7 -12 9 2 13 10 20 23 16 29 -4 6 0 8 11 4 10 -4 15 -3 11 3 -4 6 4 19 17 30
18 15 21 21 11 31 -21 21 -15 33 7 14 20 -18 25 -12 21 24 -2 8 3 10 11 6 10
-6 11 -5 1 6 -17 18 -16 34 1 20 11 -9 15 -7 19 8 5 19 -7 22 -31 7 -7 -4 -11
-14 -8 -21 3 -8 -2 -19 -11 -27 -17 -14 -17 -16 2 50 4 13 2 22 -4 22 -6 0
-11 -12 -11 -27 0 -16 -5 -35 -11 -43 -9 -12 -10 -12 -5 3 3 10 7 42 7 70 1
29 4 42 6 30 2 -13 9 -23 14 -23 6 0 8 10 4 23 -5 19 -4 20 5 4 6 -9 8 -21 5
-26 -8 -13 29 -10 41 3 13 16 15 35 21 200 5 135 4 148 -11 143 -14 -5 -15 -3
-6 13 5 10 10 20 10 23 0 9 -58 67 -67 67 -14 0 -22 59 -10 67 6 3 7 1 3 -5
-4 -7 -3 -12 2 -12 6 0 8 -10 5 -22 -3 -15 -2 -19 4 -11 6 8 13 2 23 -20 7
-17 15 -26 17 -20 6 17 -47 104 -59 97 -5 -3 -8 2 -6 12 2 13 -3 19 -15 17
-11 0 -16 4 -13 12 2 7 -6 23 -19 35 -22 20 -25 21 -31 7 -3 -9 -10 -14 -16
-11 -5 4 -5 11 2 19 7 9 6 16 -3 24 -18 14 -30 2 -16 -16 14 -17 -3 -17 -19 0
-7 6 -16 13 -20 13 -35 7 -52 18 -48 31 3 8 6 17 6 19 0 3 5 2 11 -2 8 -4 7
-9 -2 -16 -10 -6 -6 -7 11 -3 20 5 22 4 10 -5 -13 -10 -12 -11 3 -6 9 3 17 1
17 -5 0 -6 5 -7 12 -3 12 8 -6 24 -54 50 -20 10 -29 11 -34 2 -5 -7 -3 -8 7
-3 12 8 12 6 0 -8 -13 -16 -16 -16 -50 5 -20 12 -38 26 -39 30 -2 5 -9 5 -14
2 -7 -5 -8 -2 -4 5 6 9 12 9 25 -3 10 -9 21 -16 26 -16 5 0 -1 9 -13 20 -19
18 -25 19 -44 9 -21 -11 -22 -11 -9 4 16 20 1 23 -18 5 -10 -11 -11 -10 -6 5
4 10 2 17 -4 17 -6 0 -11 -4 -11 -10 0 -5 -5 -10 -11 -10 -5 0 -7 5 -3 11 4 8
-1 9 -16 4 -15 -5 -20 -3 -16 3 8 13 11 12 -179 17 -100 3 -172 -1 -216 -10z
m733 -209 c3 5 4 4 2 -2 -1 -6 4 -11 11 -11 10 0 11 7 4 24 -5 14 -5 23 1 23
11 0 24 -21 25 -40 0 -9 8 -14 20 -13 11 1 14 0 7 -3 -10 -5 -10 -9 -1 -20 8
-10 8 -14 1 -14 -7 0 -4 -16 7 -42 10 -24 16 -49 14 -55 -3 -7 0 -13 6 -13 6
0 11 8 12 18 0 10 5 6 11 -11 8 -21 7 -32 -2 -40 -10 -9 -11 -7 -6 13 3 14 3
19 0 13 -3 -7 -10 -13 -15 -13 -14 0 -40 66 -33 85 5 11 2 14 -12 8 -13 -5
-15 -3 -8 8 14 23 13 38 -2 32 -8 -3 -11 -10 -7 -16 3 -6 1 -7 -5 -3 -6 4 -8
14 -5 23 5 12 3 14 -8 8 -8 -4 -11 -5 -7 0 5 5 -1 14 -12 22 -11 8 -25 24 -31
36 -9 20 -9 20 9 -2 11 -13 21 -20 24 -15z m-1014 -123 c0 -10 1 -25 4 -33 3
-8 3 -12 1 -7 -9 16 -20 6 -20 -18 0 -27 -13 -47 -20 -30 -2 6 -8 17 -13 25
-9 13 -12 12 -25 -4 -8 -11 -12 -22 -9 -25 3 -3 9 1 14 9 5 8 12 11 16 8 3 -4
-1 -15 -10 -24 -10 -10 -14 -23 -11 -33 13 -32 15 -45 4 -23 -7 12 -16 22 -22
22 -5 0 -4 -7 4 -16 9 -11 9 -18 2 -22 -6 -4 -13 -18 -16 -32 -2 -14 -3 -6 -1
17 2 25 -1 45 -8 49 -7 5 -9 2 -5 -9 3 -9 2 -19 -3 -22 -5 -3 -7 -13 -4 -23 5
-14 4 -14 -4 -3 -9 12 -12 10 -17 -12 -4 -15 -11 -27 -16 -27 -10 0 11 52 26
62 5 4 7 8 2 8 -4 0 -1 13 8 30 11 21 20 28 33 23 14 -6 15 -4 5 8 -9 12 -6
23 18 59 17 25 34 45 39 45 5 0 12 3 16 8 11 11 13 9 12 -10z m1159 -75 c-3
-8 -6 -5 -6 6 -1 11 2 17 5 13 3 -3 4 -12 1 -19z m-43 -33 c-4 -8 -8 -15 -10
-15 -2 0 -4 7 -4 15 0 8 4 15 10 15 5 0 7 -7 4 -15z m-1234 -139 c13 -18 13
-19 -1 -14 -13 5 -16 2 -12 -15 5 -17 3 -20 -7 -10 -8 7 -10 22 -6 38 4 15 8
26 9 24 2 -2 9 -13 17 -23z m1227 -13 c-3 -10 -5 -4 -5 12 0 17 2 24 5 18 2
-7 2 -21 0 -30z m-1260 -37 c21 -46 15 -52 -12 -12 -28 42 -30 47 -13 44 7 -2
18 -16 25 -32z m-8 -66 c0 -8 -4 -5 -10 8 -5 13 -13 21 -18 18 -5 -3 -7 4 -4
15 6 21 6 21 19 -2 7 -13 13 -31 13 -39z m1273 -12 c-7 -7 -10 3 -10 29 1 37
1 38 10 10 7 -19 7 -32 0 -39z m32 5 c-10 -40 -14 -41 -14 -5 0 18 5 32 10 32
6 0 8 -11 4 -27z m21 -22 c-4 -23 -10 -41 -14 -41 -5 0 -4 20 2 45 13 55 22
52 12 -4z m-1342 8 c3 -11 0 -31 -7 -44 l-13 -25 -13 39 c-7 21 -10 44 -6 49
10 16 33 4 39 -19z m-30 -109 c5 -26 4 -31 -3 -20 -8 11 -9 5 -4 -21 3 -22 2
-39 -5 -43 -8 -5 -11 18 -10 76 0 82 8 84 22 8z m1283 -5 c-4 -15 0 -38 10
-58 9 -17 13 -29 9 -25 -5 4 -21 -6 -37 -22 -15 -16 -28 -26 -28 -22 0 4 -9
-3 -18 -16 -17 -21 -20 -22 -32 -8 -11 14 -10 16 5 9 14 -5 17 -3 13 9 -6 14
49 84 59 74 8 -8 -17 -47 -27 -41 -5 3 -11 1 -14 -4 -11 -18 27 -4 40 14 17
23 19 59 2 49 -8 -5 -9 -2 -4 12 5 10 11 27 13 37 8 27 16 20 9 -8z m-1252
-113 c3 -6 2 -13 -3 -16 -5 -3 -11 8 -15 25 -8 43 -6 71 3 33 4 -17 11 -36 15
-42z m3 36 c-3 -8 -6 -5 -6 6 -1 11 2 17 5 13 3 -3 4 -12 1 -19z m-23 -92 c-3
-8 0 -17 7 -22 8 -5 11 -2 7 7 -3 8 0 20 7 26 10 10 15 8 20 -5 7 -14 9 -13
16 8 6 18 7 13 3 -16 -4 -29 -1 -46 9 -56 12 -12 13 -17 1 -33 -8 -10 -17 -15
-21 -10 -5 4 -2 10 5 12 6 3 12 9 12 14 0 6 -4 7 -10 4 -6 -4 -10 6 -10 22 0
52 -17 59 -26 12 l-7 -44 -18 55 c-10 30 -18 66 -18 80 0 23 1 22 14 -8 8 -18
12 -39 9 -46z m1194 -12 c2 -1 -11 -7 -28 -12 -18 -7 -28 -7 -25 -2 4 6 14 10
23 11 11 0 12 3 5 6 -7 2 -13 9 -13 15 0 6 7 5 18 -3 9 -7 18 -14 20 -15z
m-1159 -74 c-5 -3 3 -23 17 -44 19 -28 29 -35 38 -27 7 6 16 8 19 4 4 -3 7 0
7 8 1 10 3 9 11 -3 6 -11 6 -24 0 -35 -6 -13 -4 -22 6 -32 13 -12 14 -11 8 8
-4 13 -2 21 5 21 6 0 8 -4 5 -10 -3 -5 5 -21 19 -35 14 -13 21 -27 16 -30 -5
-3 -7 -12 -4 -19 3 -7 -2 -19 -11 -26 -9 -8 -15 -9 -15 -2 0 6 -13 25 -30 42
-16 17 -30 37 -30 45 0 8 -5 15 -11 15 -5 0 -7 5 -4 10 3 6 2 10 -3 10 -17 0
-58 93 -54 120 4 23 5 23 12 5 4 -11 3 -22 -1 -25z"/>
<path d="M2570 5901 c0 -5 5 -13 10 -16 6 -3 10 -2 10 4 0 5 -4 13 -10 16 -5
3 -10 2 -10 -4z"/>
<path d="M1496 5786 c5 -13 4 -17 -4 -12 -14 8 -15 -3 -3 -22 6 -10 10 -8 14
9 4 13 2 28 -4 34 -7 7 -8 4 -3 -9z"/>
<path d="M1320 5418 c0 -7 5 -20 10 -28 8 -12 10 -9 10 13 0 15 -4 27 -10 27
-5 0 -10 -6 -10 -12z"/>
<path d="M1424 4969 c-3 -5 3 -23 13 -41 9 -18 16 -37 15 -41 -1 -5 1 -6 6 -3
5 3 15 -6 22 -19 17 -32 28 -32 28 0 0 26 -28 59 -28 34 -1 -9 -8 -5 -20 9
-15 18 -17 28 -10 42 6 10 10 20 10 23 0 7 -31 4 -36 -4z m76 -89 c0 -5 -4
-10 -10 -10 -5 0 -10 5 -10 10 0 6 5 10 10 10 6 0 10 -4 10 -10z"/>
<path d="M2370 6056 c0 -2 7 -7 16 -10 8 -3 12 -2 9 4 -6 10 -25 14 -25 6z"/>
<path d="M1715 5950 c-3 -6 1 -7 9 -4 18 7 21 14 7 14 -6 0 -13 -4 -16 -10z"/>
<path d="M1617 5906 c-4 -10 -13 -16 -21 -13 -8 3 -20 0 -26 -8 -10 -12 -8
-13 12 -9 12 3 30 6 38 8 8 2 14 6 13 10 -6 25 -10 28 -16 12z"/>
<path d="M1411 5474 c0 -11 3 -14 6 -6 3 7 2 16 -1 19 -3 4 -6 -2 -5 -13z"/>
<path d="M3792 5315 c-18 -8 -66 -42 -107 -75 -70 -58 -76 -60 -130 -60 -94 0
-145 -33 -145 -93 0 -23 -1 -24 -40 -14 -53 15 -88 1 -120 -46 -20 -29 -39
-43 -78 -56 -29 -10 -62 -27 -73 -37 -24 -21 -59 -86 -59 -107 0 -10 -17 -17
-49 -21 -70 -9 -113 -41 -131 -99 -15 -47 -15 -47 -60 -47 -25 0 -64 -9 -87
-20 -41 -18 -58 -41 -77 -103 -5 -15 -12 -17 -41 -11 -48 9 -115 -25 -149 -76
-14 -22 -26 -44 -26 -51 0 -7 -17 -8 -54 -4 -41 5 -62 3 -91 -11 -41 -19 -90
-80 -100 -123 -6 -26 -10 -29 -66 -34 -95 -10 -149 -49 -149 -108 0 -28 -38
-72 -80 -94 -73 -36 -260 -85 -480 -125 -255 -47 -429 -83 -504 -107 -66 -21
-87 -33 -131 -77 -48 -48 -85 -120 -85 -166 0 -9 -20 -35 -45 -57 l-45 -40 -1
-79 c-3 -176 3 -248 23 -288 25 -49 92 -116 151 -150 68 -40 291 -94 437 -106
249 -20 869 -31 2110 -37 1091 -5 1313 -3 1615 11 357 17 477 31 545 66 49 25
87 71 101 123 15 54 14 578 -1 606 -5 11 -18 22 -29 26 -17 5 -18 21 -18 288
0 458 -43 791 -121 947 -23 47 -34 57 -72 72 -25 9 -71 17 -102 17 -86 1 -124
-33 -210 -189 -114 -207 -149 -230 -324 -211 -101 10 -113 14 -250 81 -79 38
-161 86 -183 105 -54 49 -91 125 -91 189 0 107 -19 177 -68 259 -49 82 -85
116 -141 135 -46 16 -129 14 -169 -3z"/>
<path d="M1573 4759 c1 -14 4 -15 14 -7 17 14 16 25 -1 25 -8 0 -14 -8 -13
-18z"/>
<path d="M1635 4680 c3 -5 8 -10 11 -10 2 0 4 5 4 10 0 6 -5 10 -11 10 -5 0
-7 -4 -4 -10z"/>
<path d="M1696 4678 c3 -10 11 -18 18 -18 7 0 6 -4 -2 -9 -11 -6 -8 -10 10
-14 12 -4 32 -20 43 -37 31 -48 147 -130 174 -123 l22 6 -23 16 c-23 16 -30
17 -25 4 1 -5 6 -7 10 -5 5 1 6 -2 2 -8 -9 -15 -35 7 -29 25 3 7 -10 23 -28
36 -18 13 -34 22 -35 19 0 -3 -11 7 -23 23 -12 15 -27 27 -35 27 -7 0 -29 17
-49 38 -21 20 -34 29 -30 20z m105 -85 c13 -17 13 -17 -6 -3 -11 8 -22 16 -24
17 -2 2 0 3 6 3 6 0 17 -8 24 -17z m72 -61 c13 0 19 -9 10 -15 -5 -3 -24 8
-43 25 -30 26 -31 27 -5 10 17 -11 34 -20 38 -20z"/>
<path d="M1955 4471 c-19 -8 -19 -9 5 -16 46 -16 53 -15 34 6 -9 10 -18 19
-18 18 -1 0 -10 -4 -21 -8z"/>
<path d="M454 2750 c-38 -15 -64 -59 -64 -107 0 -38 5 -50 34 -79 l34 -34
2712 0 2712 0 28 28 c38 38 47 89 25 136 -34 72 212 66 -2767 65 -1481 0
-2703 -4 -2714 -9z"/>
<path d="M2065 2497 c-21 -30 -19 -144 5 -296 31 -200 34 -363 11 -625 -22
-260 -23 -252 51 -322 64 -62 353 -273 404 -296 82 -36 162 -35 315 5 161 42
322 103 408 155 155 94 300 296 336 470 25 120 136 374 197 451 10 14 66 69
123 122 98 91 186 151 265 178 41 14 90 58 90 81 0 27 -32 48 -99 65 -60 16
-68 16 -169 -5 -198 -39 -325 -90 -352 -140 -21 -39 -31 -21 -28 46 3 63 1 67
-30 95 -51 45 -84 38 -159 -34 -40 -39 -43 -45 -43 -97 0 -76 -23 -175 -45
-200 -65 -72 -125 53 -125 262 0 85 -1 88 -25 94 -35 9 -90 -31 -112 -81 -16
-35 -18 -73 -18 -285 0 -268 -4 -292 -62 -352 -58 -60 -193 -89 -293 -64 -99
25 -143 57 -211 149 -94 128 -136 222 -155 347 -8 58 -20 118 -26 133 -31 79
-116 147 -200 160 -31 5 -40 2 -53 -16z"/>
<path d="M1945 1200 c-48 -56 -86 -103 -84 -104 2 -2 200 -169 439 -371 239
-202 445 -376 456 -387 l22 -19 86 102 c71 83 85 104 74 115 -19 18 -852 722
-889 752 -14 11 -28 -1 -104 -88z"/>
</g>
</svg>
